<?xml version="1.0" encoding="UTF-8" standalone="no"?>
<svg
   xmlns:dc="http://purl.org/dc/elements/1.1/"
   xmlns:cc="http://creativecommons.org/ns#"
   xmlns:rdf="http://www.w3.org/1999/02/22-rdf-syntax-ns#"
   xmlns:svg="http://www.w3.org/2000/svg"
   xmlns="http://www.w3.org/2000/svg"
   xmlns:sodipodi="http://sodipodi.sourceforge.net/DTD/sodipodi-0.dtd"
   xmlns:inkscape="http://www.inkscape.org/namespaces/inkscape"
   id="Pagina_inicia_Movil"
   data-name="Pagina inicia Movil"
   viewBox="0 0 62.8 62.8"
   version="1.1"
   sodipodi:docname="servicio-4.svg"
   inkscape:version="0.92.1 r15371">
  <metadata
     id="metadata3881">
    <rdf:RDF>
      <cc:Work
         rdf:about="">
        <dc:format>image/svg+xml</dc:format>
        <dc:type
           rdf:resource="http://purl.org/dc/dcmitype/StillImage" />
        <dc:title>servicio-2</dc:title>
      </cc:Work>
    </rdf:RDF>
  </metadata>
  <sodipodi:namedview
     pagecolor="#ffffff"
     bordercolor="#666666"
     borderopacity="1"
     objecttolerance="10"
     gridtolerance="10"
     guidetolerance="10"
     inkscape:pageopacity="0"
     inkscape:pageshadow="2"
     inkscape:window-width="1024"
     inkscape:window-height="714"
     id="namedview3879"
     showgrid="false"
     showguides="false"
     inkscape:zoom="8.0414014"
     inkscape:cx="23.057006"
     inkscape:cy="22.671457"
     inkscape:window-x="-4"
     inkscape:window-y="-4"
     inkscape:window-maximized="1"
     inkscape:current-layer="Pagina_inicia_Movil" />
  <defs
     id="defs3868">
    <style
       id="style3866">.cls-1{fill:#0090ca;}.cls-2{fill:#fff;}</style>
  </defs>
  <title
     id="title3870">servicio-2</title>
  <circle
     class="cls-1"
     cx="31.4"
     cy="31.4"
     r="31.4"
     id="circle3872"
     style="stroke:none;stroke-opacity:1" />
  <path
     class="cls-2"
     d="M1031,2084.6v-4.8a0.8,0.8,0,0,1,.2-0.6l0.6-.2h0.3v-1.6a3.8,3.8,0,0,1,7.6,0v1.6h0.3l0.6,0.2a0.8,0.8,0,0,1,.2.6v4.9a0.8,0.8,0,0,1-.2.6l-0.6.2h-8.1l-0.6-.2A0.7,0.7,0,0,1,1031,2084.6Zm2.7-5.7h4.3v-1.6a2.1,2.1,0,0,0-.6-1.5,2,2,0,0,0-1.5-.6,2.1,2.1,0,0,0-1.5.6,2,2,0,0,0-.6,1.5v1.6h-0.1Z"
     transform="translate(-1004.5 -2051.8)"
     id="path3874" />
  <path
     class="cls-2"
     d="M1017.8,2092.1v-20.5a3,3,0,0,1,.9-2.1,2.9,2.9,0,0,1,2.1-.9h30.1a3,3,0,0,1,2.1.9,2.9,2.9,0,0,1,.9,2.1v20.5a3,3,0,0,1-.9,2.1,2.9,2.9,0,0,1-2.1.9h-10.2a4,4,0,0,0,.3,1.4l0.6,1.3a2.3,2.3,0,0,1,.3.8,1.2,1.2,0,0,1-1.2,1.2H1031a1.2,1.2,0,0,1-1.2-1.2,2.2,2.2,0,0,1,.3-0.8l0.6-1.3a4.1,4.1,0,0,0,.3-1.5h-10.2a3,3,0,0,1-2.1-.9A2.9,2.9,0,0,1,1017.8,2092.1Zm2.4-4.8a0.6,0.6,0,0,0,.2.4l0.4,0.2h30.1l0.4-.2a0.6,0.6,0,0,0,.2-0.4v-15.6a0.6,0.6,0,0,0-.2-0.4l-0.4-.2h-30.1l-0.4.2a0.6,0.6,0,0,0-.2.4v15.6h0Z"
     transform="translate(-1004.5 -2051.8)"
     id="path3876" />
  <rect
     style="fill:#0090ca;stroke:none;stroke-opacity:1;fill-opacity:1"
     id="rect4699"
     width="38.550495"
     height="36.31208"
     x="12.186931"
     y="14.922772" />
  <g
     id="g4931"
     transform="matrix(0.11081936,0,0,0.11081936,10.942955,10.307709)">
    <g
       id="g4871">
	<g
   id="g4869">
		<g
   id="g4867">
			<path
   id="path4861"
   d="M 343.296,255.716 V 241.71 157.634 73.557 c 0,-7.693 -6.297,-14.006 -14.023,-14.006 H 49.048 c -7.709,0 -14.039,6.281 -14.039,14.006 v 84.076 84.076 14.006 L 0,297.754 c 0,11.58 9.407,21.003 21.003,21.003 h 336.302 c 11.596,0 21.003,-9.423 21.003,-21.003 z m -126.112,56.061 h -56.028 c -1.934,0 -3.521,-1.555 -3.521,-3.505 0,-1.95 1.587,-3.505 3.521,-3.505 h 56.028 c 1.934,0 3.521,1.555 3.521,3.505 -0.032,1.95 -1.587,3.505 -3.521,3.505 z m -85.789,-14.007 10.692,-12.834 h 94.134 l 10.692,12.834 z m 192.168,-66.833 c 0,6.757 -5.504,12.231 -12.215,12.231 H 66.958 c -6.711,0 -12.215,-5.52 -12.215,-12.231 V 84.36 c 0,-6.757 5.504,-12.231 12.215,-12.231 h 244.39 c 6.711,0 12.215,5.504 12.215,12.231 0,0 0,146.577 0,146.577 z"
   style="fill:#010002"
   inkscape:connector-curvature="0" />

			<path
   id="path4863"
   d="m 260.444,160.108 10.692,-16.053 -11.865,-11.898 -16.07,10.692 c -1.713,-0.872 -3.602,-1.412 -5.409,-2.047 l -3.825,-19.115 h -16.831 l -3.822,19.115 c -1.824,0.651 -3.68,1.173 -5.409,2.047 l -16.07,-10.692 -11.881,11.865 10.692,16.086 c -0.888,1.73 -1.619,3.57 -2.238,5.442 l -18.924,3.79 v 16.831 l 18.94,3.777 c 0.619,1.888 1.348,3.68 2.238,5.458 l -10.709,16.037 11.898,11.898 16.07,-10.725 c 1.697,0.904 3.586,1.428 5.409,2.047 l 3.822,19.147 h 16.831 l 3.822,-19.147 c 1.808,-0.619 3.664,-1.143 5.409,-2.047 l 16.053,10.725 11.898,-11.898 -10.709,-16.037 c 0.904,-1.746 1.619,-3.57 2.238,-5.458 l 18.924,-3.777 0.032,-16.831 -18.956,-3.79 c -0.634,-1.872 -1.346,-3.696 -2.25,-5.442 z m -34.883,37.28 c -10.851,0 -19.607,-8.788 -19.607,-19.639 0,-10.819 8.788,-19.591 19.607,-19.591 10.819,0 19.639,8.788 19.639,19.591 -0.003,10.835 -8.791,19.639 -19.639,19.639 z"
   style="fill:#010002"
   inkscape:connector-curvature="0" />

			<path
   id="path4865"
   d="m 163.184,139.85 c 0.285,-1.332 0.412,-2.698 0.492,-4.124 l 12.183,-6.012 -3.029,-11.405 -13.546,0.888 c -0.761,-1.189 -1.619,-2.316 -2.507,-3.33 l 4.331,-12.834 -10.249,-5.918 -8.931,10.2 c -1.315,-0.269 -2.698,-0.317 -4.062,-0.395 l -6.093,-12.28 -11.421,3.045 0.888,13.689 c -1.095,0.777 -2.3,1.49 -3.301,2.348 l -12.866,-4.331 -5.902,10.249 10.184,8.947 c -0.285,1.332 -0.412,2.698 -0.476,4.091 l -12.215,6.012 3.045,11.454 13.546,-0.888 c 0.761,1.173 1.603,2.284 2.491,3.284 l -4.315,12.866 10.249,5.902 8.931,-10.184 c 1.302,0.269 2.711,0.301 4.062,0.366 l 6.093,12.293 11.405,-3.029 -0.872,-13.689 c 1.079,-0.777 2.268,-1.474 3.301,-2.348 l 12.85,4.298 5.918,-10.232 z m -23.319,7.694 c -7.376,1.966 -14.91,-2.394 -16.879,-9.756 -1.966,-7.36 2.381,-14.91 9.74,-16.895 7.376,-1.95 14.91,2.41 16.895,9.756 1.97,7.345 -2.41,14.912 -9.756,16.895 z"
   style="fill:#010002"
   inkscape:connector-curvature="0" />

		</g>

	</g>

</g>
    <g
       id="g4873">
</g>
    <g
       id="g4875">
</g>
    <g
       id="g4877">
</g>
    <g
       id="g4879">
</g>
    <g
       id="g4881">
</g>
    <g
       id="g4883">
</g>
    <g
       id="g4885">
</g>
    <g
       id="g4887">
</g>
    <g
       id="g4889">
</g>
    <g
       id="g4891">
</g>
    <g
       id="g4893">
</g>
    <g
       id="g4895">
</g>
    <g
       id="g4897">
</g>
    <g
       id="g4899">
</g>
    <g
       id="g4901">
</g>
  </g>
  <path
     style="fill:#ffffff;fill-opacity:1;stroke:none;stroke-width:0.12435643;stroke-opacity:1"
     d="M 12.827148,45.591685 C 11.865373,45.40089 10.94469,44.408952 10.94469,43.563538 c 0,-0.212191 0.589189,-1.010856 1.927524,-2.61282 l 1.927525,-2.307214 V 28.374303 c 0,-11.334647 -0.04037,-10.754539 0.783265,-11.256735 0.389386,-0.237423 0.747356,-0.242749 16.315745,-0.242749 15.568389,0 15.926358,0.0053 16.315744,0.242749 0.823577,0.502164 0.783265,-0.07646 0.783265,11.242877 v 10.255341 l 1.942053,2.324604 c 1.915934,2.29334 1.941152,2.331304 1.87521,2.822939 -0.08295,0.618413 -0.625063,1.31961 -1.275944,1.650362 -0.482558,0.245217 -0.754251,0.248973 -19.329437,0.267164 -10.362,0.01015 -19.084122,-0.02998 -19.382492,-0.08917 z m 22.429225,-1.110667 v -0.310891 l -3.329656,-0.03313 c -2.881475,-0.02867 -3.339396,-0.0077 -3.402018,0.155445 -0.0398,0.103715 -0.0398,0.273429 0,0.377143 0.06262,0.16319 0.520543,0.184114 3.402018,0.155446 l 3.329656,-0.03313 z m 2.573456,-1.709901 c -0.780438,-0.984126 -0.258611,-0.90815 -5.988509,-0.87189 l -5.133375,0.03248 -0.560721,0.652871 -0.560722,0.652871 h 6.306574 6.306572 z m 8.181645,-5.720589 c 0.238435,-0.119587 0.503421,-0.357332 0.58886,-0.528322 0.219665,-0.439622 0.229557,-16.994649 0.01045,-17.475554 -0.324637,-0.712491 0.366749,-0.680485 -14.700005,-0.680485 -9.705039,0 -13.954949,0.0405 -14.162256,0.134953 -0.162904,0.07422 -0.389379,0.29271 -0.503277,0.485524 -0.187716,0.317778 -0.207087,1.137449 -0.207087,8.762707 0,9.295912 -0.02623,8.984031 0.785275,9.336978 0.329391,0.143262 2.700217,0.173068 14.075319,0.176954 12.780486,0.0044 13.70769,-0.0096 14.112725,-0.212755 z"
     id="path4933"
     inkscape:connector-curvature="0" />
  <path
     style="fill:#ffffff;fill-opacity:1;stroke:none;stroke-width:0.12435643;stroke-opacity:1"
     d="m 34.817657,35.434087 c -0.316093,-1.700989 -0.47353,-1.787006 -1.735202,-0.948051 l -0.883219,0.587301 -0.668583,-0.660279 -0.668584,-0.660278 0.571442,-0.85937 c 0.493883,-0.74273 0.55554,-0.904587 0.454278,-1.192523 -0.104656,-0.297589 -0.223163,-0.353739 -1.110132,-0.525989 l -0.992968,-0.192835 -0.03694,-0.918575 c -0.02407,-0.598576 0.01322,-0.949576 0.107046,-1.007565 0.07919,-0.04894 0.554678,-0.159241 1.056632,-0.245103 0.847546,-0.144978 0.918101,-0.180963 0.989163,-0.504506 0.06129,-0.279057 -0.03646,-0.516806 -0.491164,-1.194611 l -0.567685,-0.846219 0.677049,-0.677048 0.677048,-0.677048 0.878902,0.58443 c 1.192839,0.793185 1.417021,0.738945 1.627469,-0.393756 0.268922,-1.447426 0.229464,-1.40502 1.268217,-1.362948 l 0.902583,0.03656 0.238897,1.079976 c 0.310545,1.40387 0.460377,1.460491 1.694026,0.64017 l 0.878902,-0.58443 0.677048,0.677048 0.677048,0.677048 -0.559594,0.83416 c -0.832113,1.240389 -0.772452,1.473348 0.435257,1.69958 1.354826,0.25379 1.258431,0.156237 1.217527,1.232171 l -0.03614,0.950608 -0.992968,0.192865 c -0.886955,0.172275 -1.005476,0.228434 -1.110132,0.526019 -0.101261,0.287936 -0.0396,0.449793 0.454279,1.192523 l 0.571442,0.85937 -0.668584,0.660278 -0.668584,0.660279 -0.883218,-0.587301 C 37.536543,33.647083 37.379106,33.7331 37.063012,35.434089 l -0.155986,0.839406 h -0.966689 -0.96669 z m 2.322339,-3.667413 c 1.134784,-0.777567 1.225753,-2.480908 0.179513,-3.361261 -0.82744,-0.696245 -1.930912,-0.696245 -2.758352,0 -1.235008,1.039191 -0.833549,3.137414 0.695216,3.633536 0.53839,0.174721 1.416521,0.04779 1.883623,-0.272275 z"
     id="path4935"
     inkscape:connector-curvature="0" />
  <path
     style="fill:#ffffff;fill-opacity:1;stroke:none;stroke-width:0.12435643;stroke-opacity:1"
     d="m 26.151096,28.874285 c -0.189521,-0.386425 -0.418846,-0.6844 -0.527164,-0.684972 -0.105445,-5.56e-4 -0.415559,0.255436 -0.689144,0.568871 l -0.497425,0.569883 -0.590693,-0.33079 c -0.324882,-0.181934 -0.590693,-0.345225 -0.590693,-0.362868 0,-0.01764 0.106162,-0.340646 0.235917,-0.717783 0.31299,-0.909724 0.228229,-1.019143 -0.761683,-0.983255 l -0.79587,0.02885 -0.149607,-0.648132 c -0.08228,-0.356472 -0.134668,-0.661001 -0.11641,-0.676731 0.01826,-0.01573 0.326989,-0.176176 0.686068,-0.356546 0.418459,-0.210197 0.652872,-0.407039 0.652872,-0.54823 0,-0.121156 -0.253696,-0.432348 -0.56377,-0.691537 l -0.563769,-0.471253 0.27278,-0.456665 c 0.422682,-0.70762 0.422136,-0.707393 1.149331,-0.478165 0.981498,0.30939 1.094911,0.226535 0.997073,-0.728423 l -0.08032,-0.783941 0.482455,-0.133959 c 0.792324,-0.219997 0.890266,-0.181219 1.228593,0.486436 0.389133,0.767918 0.62572,0.791862 1.22877,0.124357 0.247167,-0.273584 0.486594,-0.497426 0.53206,-0.497426 0.04547,0 0.32223,0.140394 0.615031,0.311987 l 0.532365,0.311987 -0.236261,0.686705 c -0.336852,0.979076 -0.260715,1.089858 0.706688,1.028259 l 0.792518,-0.05046 0.181774,0.612099 c 0.09998,0.336655 0.158432,0.649869 0.129902,0.696031 -0.02853,0.04616 -0.335346,0.216703 -0.681815,0.37898 -0.782525,0.366515 -0.8002,0.58176 -0.101428,1.235224 l 0.528515,0.494247 -0.308294,0.567274 c -0.169562,0.312001 -0.332524,0.567275 -0.362139,0.567275 -0.02962,0 -0.346501,-0.09225 -0.704191,-0.205003 -0.968924,-0.305427 -1.097142,-0.210306 -0.995528,0.73855 l 0.08343,0.779079 -0.568326,0.152004 c -0.312579,0.0836 -0.624091,0.152004 -0.692249,0.152004 -0.06816,0 -0.274873,-0.307782 -0.459368,-0.683961 z m 0.520417,-2.352975 c 0.511859,-0.213869 0.812582,-0.749067 0.812582,-1.446156 0,-1.165209 -1.442995,-1.805628 -2.349592,-1.042776 -0.452248,0.380541 -0.66072,1.023043 -0.506465,1.5609 0.142626,0.497307 0.345492,0.73254 0.804128,0.932422 0.485256,0.211485 0.724715,0.210637 1.239347,-0.0044 z"
     id="path4937"
     inkscape:connector-curvature="0" />
</svg>
