<?xml version="1.0" encoding="UTF-8" standalone="no"?>
<svg
   xmlns:dc="http://purl.org/dc/elements/1.1/"
   xmlns:cc="http://creativecommons.org/ns#"
   xmlns:rdf="http://www.w3.org/1999/02/22-rdf-syntax-ns#"
   xmlns:svg="http://www.w3.org/2000/svg"
   xmlns="http://www.w3.org/2000/svg"
   xmlns:sodipodi="http://sodipodi.sourceforge.net/DTD/sodipodi-0.dtd"
   xmlns:inkscape="http://www.inkscape.org/namespaces/inkscape"
   id="Pagina_inicia_Movil"
   data-name="Pagina inicia Movil"
   viewBox="0 0 62.8 62.8"
   version="1.1"
   sodipodi:docname="servicio-1.svg"
   inkscape:version="0.92.1 r15371">
  <metadata
     id="metadata3881">
    <rdf:RDF>
      <cc:Work
         rdf:about="">
        <dc:format>image/svg+xml</dc:format>
        <dc:type
           rdf:resource="http://purl.org/dc/dcmitype/StillImage" />
        <dc:title>servicio-2</dc:title>
      </cc:Work>
    </rdf:RDF>
  </metadata>
  <sodipodi:namedview
     pagecolor="#ffffff"
     bordercolor="#666666"
     borderopacity="1"
     objecttolerance="10"
     gridtolerance="10"
     guidetolerance="10"
     inkscape:pageopacity="0"
     inkscape:pageshadow="2"
     inkscape:window-width="1024"
     inkscape:window-height="714"
     id="namedview3879"
     showgrid="false"
     showguides="false"
     inkscape:zoom="8.0414014"
     inkscape:cx="43.906409"
     inkscape:cy="27.999537"
     inkscape:window-x="-4"
     inkscape:window-y="-4"
     inkscape:window-maximized="1"
     inkscape:current-layer="Pagina_inicia_Movil" />
  <defs
     id="defs3868">
    <style
       id="style3866">.cls-1{fill:#0090ca;}.cls-2{fill:#fff;}</style>
  </defs>
  <title
     id="title3870">servicio-2</title>
  <circle
     class="cls-1"
     cx="31.4"
     cy="31.4"
     r="31.4"
     id="circle3872"
     style="stroke:none;stroke-opacity:1" />
  <path
     class="cls-2"
     d="M1031,2084.6v-4.8a0.8,0.8,0,0,1,.2-0.6l0.6-.2h0.3v-1.6a3.8,3.8,0,0,1,7.6,0v1.6h0.3l0.6,0.2a0.8,0.8,0,0,1,.2.6v4.9a0.8,0.8,0,0,1-.2.6l-0.6.2h-8.1l-0.6-.2A0.7,0.7,0,0,1,1031,2084.6Zm2.7-5.7h4.3v-1.6a2.1,2.1,0,0,0-.6-1.5,2,2,0,0,0-1.5-.6,2.1,2.1,0,0,0-1.5.6,2,2,0,0,0-.6,1.5v1.6h-0.1Z"
     transform="translate(-1004.5 -2051.8)"
     id="path3874" />
  <path
     class="cls-2"
     d="M1017.8,2092.1v-20.5a3,3,0,0,1,.9-2.1,2.9,2.9,0,0,1,2.1-.9h30.1a3,3,0,0,1,2.1.9,2.9,2.9,0,0,1,.9,2.1v20.5a3,3,0,0,1-.9,2.1,2.9,2.9,0,0,1-2.1.9h-10.2a4,4,0,0,0,.3,1.4l0.6,1.3a2.3,2.3,0,0,1,.3.8,1.2,1.2,0,0,1-1.2,1.2H1031a1.2,1.2,0,0,1-1.2-1.2,2.2,2.2,0,0,1,.3-0.8l0.6-1.3a4.1,4.1,0,0,0,.3-1.5h-10.2a3,3,0,0,1-2.1-.9A2.9,2.9,0,0,1,1017.8,2092.1Zm2.4-4.8a0.6,0.6,0,0,0,.2.4l0.4,0.2h30.1l0.4-.2a0.6,0.6,0,0,0,.2-0.4v-15.6a0.6,0.6,0,0,0-.2-0.4l-0.4-.2h-30.1l-0.4.2a0.6,0.6,0,0,0-.2.4v15.6h0Z"
     transform="translate(-1004.5 -2051.8)"
     id="path3876" />
  <rect
     style="fill:#0090ca;stroke:none;stroke-opacity:1;fill-opacity:1"
     id="rect4699"
     width="38.550495"
     height="36.31208"
     x="12.186931"
     y="14.922772" />
  <g
     id="g4990"
     transform="matrix(0.04422593,0,0,0.04422593,5.9398638,6.7428044)">
    <g
       id="g4958">
      <path
         id="path4956"
         d="M 528.2,460.3 389.5,316.2 55.9,655.3 10,610.2 390,224 530.1,369.5 771.1,138.8 702,69.8 H 882.3 V 250 l -65.7,-65.7 z m -358.6,470 H 386.8 V 624.7 H 169.6 Z m 301.6,0 H 688.4 V 528.1 H 471.2 Z M 772.8,327.1 V 930.3 H 990 V 327.1 Z"
         inkscape:connector-curvature="0" />
    </g>
    <g
       id="g4960" />
    <g
       id="g4962" />
    <g
       id="g4964" />
    <g
       id="g4966" />
    <g
       id="g4968" />
    <g
       id="g4970" />
    <g
       id="g4972" />
    <g
       id="g4974" />
    <g
       id="g4976" />
    <g
       id="g4978" />
    <g
       id="g4980" />
    <g
       id="g4982" />
    <g
       id="g4984" />
    <g
       id="g4986" />
    <g
       id="g4988" />
  </g>
  <path
     style="fill:#ffffff;fill-opacity:1;stroke:none;stroke-width:0.12435643;stroke-opacity:1"
     d="m 7.3644192,34.68251 -0.98265,-0.988447 5.8354688,-5.921147 c 3.209507,-3.256632 6.982656,-7.099412 8.384775,-8.539512 l 2.549307,-2.618365 1.619865,1.662414 c 0.890927,0.914329 2.287697,2.348677 3.103934,3.18744 0.816238,0.838765 1.520868,1.510289 1.565844,1.492278 0.04498,-0.01801 2.443489,-2.294363 5.330024,-5.058558 l 5.248248,-5.025809 -1.53031,-1.533993 -1.530309,-1.5339922 h 4.008629 4.008629 v 4.0085512 4.008551 l -1.461188,-1.449882 -1.461188,-1.449882 -6.342178,6.080091 c -3.488198,3.34405 -6.371805,6.081896 -6.408015,6.084103 -0.03621,0.0022 -1.428625,-1.421237 -3.094256,-3.163208 l -3.028419,-3.16722 -4.734359,4.814943 C 11.007716,33.13603 8.490309,35.670957 8.4159854,35.670957 c -0.037904,0 -0.5111088,-0.444802 -1.0515662,-0.988447 z"
     id="path5016"
     inkscape:connector-curvature="0" />
  <path
     style="fill:#ffffff;fill-opacity:1;stroke:none;stroke-width:0.12435643;stroke-opacity:1"
     d="m 26.695478,38.966403 v -8.891485 h 4.849901 4.849901 v 8.891485 8.891485 h -4.849901 -4.849901 z"
     id="path5020"
     inkscape:connector-curvature="0" />
  <path
     style="fill:#ffffff;fill-opacity:1;stroke:none;stroke-width:0.12435643;stroke-opacity:1"
     d="M 40.125973,34.489571 V 21.121254 h 4.787723 4.787722 v 13.368317 13.368317 h -4.787722 -4.787723 z"
     id="path5022"
     inkscape:connector-curvature="0" />
  <path
     style="fill:#ffffff;fill-opacity:1;stroke:none;stroke-width:0.12435643;stroke-opacity:1"
     d="m 13.38934,41.080462 v -6.777426 h 4.849901 4.8499 v 6.777426 6.777426 h -4.8499 -4.849901 z"
     id="path5024"
     inkscape:connector-curvature="0" />
</svg>
